<mxfile host="app.diagrams.net" modified="2021-08-04T12:36:59.860Z" agent="5.0 (Macintosh; Intel Mac OS X 10_15_7) AppleWebKit/537.36 (KHTML, like Gecko) Chrome/92.0.4515.107 Safari/537.36" etag="e9asvbNzKsQqKJJV7aMd" version="14.8.4" type="github">
  <diagram id="ACLCDHvk-ViJ98atcIc8" name="Page-1">
    <mxGraphModel dx="1298" dy="840" grid="1" gridSize="10" guides="1" tooltips="1" connect="1" arrows="1" fold="1" page="1" pageScale="1" pageWidth="827" pageHeight="1169" math="0" shadow="0">
      <root>
        <mxCell id="0" />
        <mxCell id="1" parent="0" />
        <mxCell id="6NfJMBZihlA7W5C_VAmP-8" style="edgeStyle=orthogonalEdgeStyle;rounded=0;orthogonalLoop=1;jettySize=auto;html=1;entryX=0.5;entryY=0;entryDx=0;entryDy=0;" edge="1" parent="1" source="6NfJMBZihlA7W5C_VAmP-1" target="6NfJMBZihlA7W5C_VAmP-2">
          <mxGeometry relative="1" as="geometry" />
        </mxCell>
        <mxCell id="6NfJMBZihlA7W5C_VAmP-1" value="前端点击创建批量兑换码" style="rounded=1;whiteSpace=wrap;html=1;fillColor=#dae8fc;strokeColor=#6c8ebf;" vertex="1" parent="1">
          <mxGeometry x="354" y="80" width="120" height="60" as="geometry" />
        </mxCell>
        <mxCell id="6NfJMBZihlA7W5C_VAmP-9" style="edgeStyle=orthogonalEdgeStyle;rounded=0;orthogonalLoop=1;jettySize=auto;html=1;entryX=0.5;entryY=0;entryDx=0;entryDy=0;" edge="1" parent="1" source="6NfJMBZihlA7W5C_VAmP-2" target="6NfJMBZihlA7W5C_VAmP-4">
          <mxGeometry relative="1" as="geometry" />
        </mxCell>
        <mxCell id="6NfJMBZihlA7W5C_VAmP-2" value="数据库批量插入N条数据" style="rounded=1;whiteSpace=wrap;html=1;fillColor=#d5e8d4;strokeColor=#82b366;" vertex="1" parent="1">
          <mxGeometry x="354" y="210" width="120" height="60" as="geometry" />
        </mxCell>
        <mxCell id="6NfJMBZihlA7W5C_VAmP-3" value="确保返回结果前&lt;br&gt;不重复请求" style="text;html=1;align=center;verticalAlign=middle;resizable=0;points=[];autosize=1;strokeColor=#9673a6;fillColor=#e1d5e7;" vertex="1" parent="1">
          <mxGeometry x="480" y="95" width="100" height="30" as="geometry" />
        </mxCell>
        <mxCell id="6NfJMBZihlA7W5C_VAmP-10" style="edgeStyle=orthogonalEdgeStyle;rounded=0;orthogonalLoop=1;jettySize=auto;html=1;entryX=0.5;entryY=0;entryDx=0;entryDy=0;" edge="1" parent="1" source="6NfJMBZihlA7W5C_VAmP-4" target="6NfJMBZihlA7W5C_VAmP-5">
          <mxGeometry relative="1" as="geometry" />
        </mxCell>
        <mxCell id="6NfJMBZihlA7W5C_VAmP-4" value="通过数据库插入获取每条数据的ID" style="rounded=1;whiteSpace=wrap;html=1;fillColor=#d5e8d4;strokeColor=#82b366;" vertex="1" parent="1">
          <mxGeometry x="354" y="340" width="120" height="60" as="geometry" />
        </mxCell>
        <mxCell id="6NfJMBZihlA7W5C_VAmP-11" style="edgeStyle=orthogonalEdgeStyle;rounded=0;orthogonalLoop=1;jettySize=auto;html=1;entryX=0.5;entryY=0;entryDx=0;entryDy=0;" edge="1" parent="1" source="6NfJMBZihlA7W5C_VAmP-5" target="6NfJMBZihlA7W5C_VAmP-6">
          <mxGeometry relative="1" as="geometry" />
        </mxCell>
        <mxCell id="6NfJMBZihlA7W5C_VAmP-5" value="通过ID生成兑换码" style="rounded=1;whiteSpace=wrap;html=1;fillColor=#d5e8d4;strokeColor=#82b366;" vertex="1" parent="1">
          <mxGeometry x="354" y="470" width="120" height="60" as="geometry" />
        </mxCell>
        <mxCell id="6NfJMBZihlA7W5C_VAmP-12" style="edgeStyle=orthogonalEdgeStyle;rounded=0;orthogonalLoop=1;jettySize=auto;html=1;entryX=0.5;entryY=0;entryDx=0;entryDy=0;" edge="1" parent="1" source="6NfJMBZihlA7W5C_VAmP-6" target="6NfJMBZihlA7W5C_VAmP-7">
          <mxGeometry relative="1" as="geometry" />
        </mxCell>
        <mxCell id="6NfJMBZihlA7W5C_VAmP-6" value="兑换码批量更新到数据库" style="rounded=1;whiteSpace=wrap;html=1;fillColor=#d5e8d4;strokeColor=#82b366;" vertex="1" parent="1">
          <mxGeometry x="354" y="610" width="120" height="60" as="geometry" />
        </mxCell>
        <mxCell id="6NfJMBZihlA7W5C_VAmP-14" style="edgeStyle=orthogonalEdgeStyle;rounded=0;orthogonalLoop=1;jettySize=auto;html=1;entryX=0.5;entryY=0;entryDx=0;entryDy=0;" edge="1" parent="1" source="6NfJMBZihlA7W5C_VAmP-7" target="6NfJMBZihlA7W5C_VAmP-13">
          <mxGeometry relative="1" as="geometry" />
        </mxCell>
        <mxCell id="6NfJMBZihlA7W5C_VAmP-7" value="组合excel数据" style="rounded=1;whiteSpace=wrap;html=1;fillColor=#ffe6cc;strokeColor=#d79b00;" vertex="1" parent="1">
          <mxGeometry x="354" y="750" width="120" height="60" as="geometry" />
        </mxCell>
        <mxCell id="6NfJMBZihlA7W5C_VAmP-13" value="返回excel文件" style="rounded=1;whiteSpace=wrap;html=1;fillColor=#ffe6cc;strokeColor=#d79b00;" vertex="1" parent="1">
          <mxGeometry x="354" y="890" width="120" height="60" as="geometry" />
        </mxCell>
      </root>
    </mxGraphModel>
  </diagram>
</mxfile>
